<?xml version="1.0" encoding="UTF-8"?>
<svg xmlns="http://www.w3.org/2000/svg" version="1.1" viewBox="0 0 17.62 17.52">
  <!-- Generator: Adobe Illustrator 29.4.0, SVG Export Plug-In . SVG Version: 2.1.0 Build 152)  -->
  <defs>
    <style>
      .st0 {
        isolation: isolate;
      }

      .st1 {
        mix-blend-mode: multiply;
        opacity: .77;
      }
    </style>
  </defs>
  <g class="st0">
    <g id="Capa_1">
      <g class="st1">
        <g>
          <path d="M8.86,17.44C4.09,17.44.21,13.56.21,8.79S4.09.15,8.86.15c4.77,0,8.65,3.88,8.65,8.65s-3.88,8.65-8.65,8.65ZM8.86.32C4.19.32.39,4.12.39,8.79s3.8,8.47,8.47,8.47,8.47-3.8,8.47-8.47S13.53.32,8.86.32Z"/>
          <path d="M7.5,11.25c-.07,0-.14-.03-.19-.08l-1.65-1.65c-.05-.05-.08-.12-.08-.19s.03-.14.08-.19c.05-.05.12-.08.19-.08s.14.03.19.08l1.46,1.46,4.18-4.18c.05-.05.12-.08.19-.08s.14.03.19.08c.05.05.08.12.08.19s-.03.14-.08.19l-4.37,4.37c-.05.05-.12.08-.19.08Z"/>
        </g>
      </g>
    </g>
  </g>
</svg>