<?xml version="1.0" encoding="UTF-8"?>
<svg id="Capa_1" data-name="Capa 1" xmlns="http://www.w3.org/2000/svg" viewBox="0 0 133.79 65.3">
  <defs>
    <style>
      .cls-1 {
        fill: #fff7ec;
      }
    </style>
  </defs>
  <path class="cls-1" d="M129.46,48.63c-.99-1.5-2.88-1.85-4.54-2.08-2.65-.38-5.32-.64-7.99-.86-13.87-1.12-27.74,1.49-41.49,3.49-21.99,3.19-47.21,12.93-49.23,14.71-.44.41-.63.89-.42,1.39.02.05.11,0,.14-.05.02-.04.1-.09.18-.14,1.56-.97,15.19-7.05,44.02-12.08,12.84-2.16,25.86-3.22,38.88-3.09,3.3.03,6.59.13,9.88.32,3.21.19,6.51.6,9.31,2.32.14.08.78.48,1.25.85.24.19.6.05.64-.25.21-1.53.24-3.21-.62-4.52Z"/>
  <path class="cls-1" d="M100.57,16.11c.02-.68-.02-1.36-.11-2.03-.04-.27-.08-.55-.14-.82-.1-.51-.22-1.01-.38-1.5-.57-1.85-1.5-3.61-2.83-5.02-2.36-2.49-5.68-3.76-8.99-4.08-.78-.08-1.54-.1-2.3-.07-2.43.1-4.81.77-6.84,2.1-2.54,1.67-4.08,3.94-4.82,6.16-.54,1.62-.81,3.33-.78,5.04.13,1.7.68,2.6,1.07,2.97.54.52,2.38.18,2.89-.39.1-.11.06-.3-.09-.34-.11-.03-.23-.09-.38-.21-1-4.94,1.25-9.6,5.18-11.6,2.56-1.31,5.35-1.26,8.16-.59,3.12.75,5.64,3.6,6.6,6.39.57,1.66.61,3.48.23,5.19-.57,2.61-2.13,5.01-4.33,6.54-2.04,1.42-4.62,2.06-7.08,1.72-.06-1.53-.12-2.87-.13-3.84-.03-2.14.18-4.4,1.12-6.35.96-1.99,2.62-3.12,4.73-3.56.1-.02.13-.14.06-.21-.22-.19-.5-.37-.75-.48-2.37-1.06-5.87.47-7.19,2.43-.37.55-.66,1.15-.87,1.78-.1.29-.18.59-.25.89-.41,1.76-.46,3.6-.4,5.39.32,8.95.75,14.87-.57,19-.79,2.53-1.65,3.16-2.97,3.62-.11.04.61.4.73.39,3.77-.29,5.19-1.07,6.18-4.29.68-2.22.58-7.56.41-12.2,1.86.34,3.8.25,5.61-.27,5.18-1.48,9.05-6.37,9.23-11.76Z"/>
  <path class="cls-1" d="M30.3,41.3c-.02.19-.05.39-.07.58-.47,3.45-1.75,6.88-4.35,9.28-2.11,1.95-4.83,3.19-7.64,3.75-2.69.53-5.58.46-8.17-.5-4.75-1.77-7.98-7.5-6.62-13.11,1.01-4.19,4.29-7.85,8.19-10.59-.26-.35-1.81-1.72-2.24-4.32-1.5-9.05,8.61-15.67,16.31-10.69,1.04.67,2.06,1.54,3.06,2.63.39.43.7.89.88,1.19.91,1.45-.29,2.74-1.21,3.01-.04.01-.08.01-.11,0-.1-.03-.17-.12-.15-.23-.01-.09-.03-.18-.06-.28,0,0,0,0,0-.01-.66-1.41-1.74-2.61-3.1-3.41-1.52-.81-3.51-1.18-5.22-.97-.75.12-1.48.36-2.15.69-.07.04-.14.08-.21.12-.01,0-.03.02-.04.03-.35.21-.68.45-1.01.72-.04.04-.08.07-.13.11-.68.57-1.47,1.42-2.03,2.61-.01.03-.03.06-.04.09-.45,1.13-.73,1.85-.7,3.08.04,1.64.83,2.73,1.97,3.08,1.43.44,2.51.29,3.7-.17.64-.25,1.38-.15,1.87.32.4.38.59.92.31,1.57-.55,1.28-2.33,1.61-3.51,1.97-.21.06-.43.13-.64.21-5.19,1.78-9.99,5.95-9.61,11.86.23,3.59,2.86,6.1,6.31,6.74,2.9.55,5.94-.16,8.32-1.88.71-.51,1.36-1.11,1.93-1.78,2.19-2.54,3.45-6.08,3.07-9.44-.13-1.18-.42-2.58-1.12-3.57-.14-.19-.26-.31-.38-.37-.13-.07-.15-.26-.02-.36.07-.05.14-.1.22-.14.99-.6,2.25-.71,3.02.29.81,1.05,1.1,2.49,1.29,3.77.08.57.14,1.15.16,1.73.03.8,0,1.6-.09,2.4Z"/>
  <path class="cls-1" d="M110.36,33.06s-.01-2.44-.22-1.99c-.09.19-.3,1.72-.37,2.58-.29,1.77-.56,3.31-2.73,3.01-1.57-.22-1.18-2.94-.84-5.06.33-2.11,1.25-6.37,1.01-7.07-.17-.5-.97-.95-1.72-1-.55-.02-1.04.08-1.35.17-.14.04-.22.2-.13.32.08.1.15.14.19.38.02.1-.68,4.23-1.09,6.24-.07.58-.19,1.18-.35,1.79-.37,1.42-.92,2.67-1.54,3.63,0,0,0,0,0,.02-.31.49-.65.92-1.02,1.23,0,0,0,0,0,0-.61.55-1.24.8-1.81.66-.15-.04-.28-.1-.41-.19-.21-.11-.37-.29-.49-.52-.77-1.18-.89-3.59-.23-6.19.43-1.34.77-2.3.93-2.53.18-.26.34-.42.49-.5.17-.1.17-.34,0-.45-.04-.02-.59-.43-1.35-.63-.94-.22-1.99.04-2.57,1.86-.7,1.83-1.55,4.87-1.03,7.91.41,2.39,1.71,4.91,5.84,4.41,1.92-.23,3.24-2.24,3.66-3.17.08-.17.33-.16.39.02.36,1,1.46,1.9,3.1,1.86,2.46-.06,4.26-2.29,4.91-4.07.01.02.03.04.04.06-.56-1.36-1.05-1.34-1.3-2.78Z"/>
  <path class="cls-1" d="M33.2,35.58c.95-.19,2.8-.24,2.41,2.37,1.25-2.5,2.99-4.61,4.98-3.92,1.99.69,1.75,3.9,1.39,8.12-.36,4.22-.26,5.84.83,6.16s3-3.22,3.81-8.12c.01-.07.75.13.76.14.12.13.18.35.23.51.15.53-.3.61-.29,1.16.08,2.55.39,4.58-1.4,6.92-.89,1.16-2.59,1.97-4.03,1.65-2.18-.49-3.2-1.86-2.55-8.57.65-6.71-1.14-3.64-1.87-1.93-.73,1.71-.83,2.58-2.55,10.03-.15,1.28-1,2.18-1.93,2.04-.93-.14-1.56-.67-1.1-3.21.46-2.54,1.52-11.71,1.37-12.52-.05-.24-.12-.4-.2-.51-.09-.12-.02-.29.13-.32Z"/>
  <path class="cls-1" d="M31.81,24.93c-.05-.2.19-.33.33-.19.66.62,1.67.94,2.5,1.04,2.97.35,13.3-3.01,16.01-4.04,5.07-1.91,11.52-4.55,17.02-3.75,1.34.2,2.56,2.08,3.13,3.22.13.26-.13.53-.39.41-.87-.39-2.21-.88-2.39-.92-3.64-.77-10.58,1.79-14,2.93-2.71.89-5.41,1.79-8.12,2.68-1.37.45-5.65,1.83-7.02,2.29-1.21.4-2.5.63-3.73.16-2.27-1.09-3.07-2.82-3.35-3.84Z"/>
  <path class="cls-1" d="M46.15,43.51c.03-1.91,3.57-26.77,4.28-30.67.36-1.94.71-1.88,1.33-1.79.61.09.95.3.69,2.04-.26,1.74-2.51,26.44-3.08,29.93-.69,4.21,1.96,4.58,4.55-.39.34-.65,1.12-1.64,1.92-1.72,1.84-.17.63,2.52.23,3.28-.88,1.7-1.56,2.78-3.17,3.87-.92.63-2.02,1.03-3.14.75-2.05-.5-3.36-2.27-3.56-4.17-.04-.39-.06-.77-.05-1.15Z"/>
  <path class="cls-1" d="M68.39,42.35c-.55-.69-1.53-2.86-1.53-2.86,0,0-.1,5.77-2.6,5.51-1.66-.18-.02-7.91,1.05-11.61,1.07-3.7-1.52-3.53-2.2-3.03-1.42,1.09-2.51,1.77-3.93,1.83-.05,0,.03-.47,0-1.22-.01-.34-.07-.68-.22-.98-.51-.98-1.74-1.43-2.79-1.21-1.76.38-3.3,2.71-2.29,4.41.28.47.75.84,1.28.99.12.03,1.15.3,1.17.18-.18,5.18-3.4,9.92-3.4,9.92-1.27,1.92.55,3.32.55,3.32,4.58-4.23,5.71-13.42,5.71-13.42l3.31-.67c-.08-.01-1.19,8.23-1.24,8.78-.11,1.2-.23,2.96.58,4,.92,1.18,2.39,1.37,3.61.7,1.35-.74,2.84-2.38,2.81-4.5,0-.54.45.26.12-.15ZM56.43,32.05h-.12s-.56-.2-.6-.5c-.03-.3.46-.7.62-.52.15.18.1,1.01.1,1.01Z"/>
  <path class="cls-1" d="M130.35,33.15c-.46-.98-.99-1.93-1.54-2.85-.23-.42-.49-.82-.77-1.22.11-.07.22-.13.36-.21,1.86-.86,3.3-2.96,2.34-5.08-.58-1.28-1.83-2.14-3.21-2.27-2.41-.18-3.88,1.79-3.63,4.07.08,1.07.52,2.11,1.03,3.06-2.03,1.71-3.95,3.54-6.1,5.08-.4.29-.49.86-.2,1.26.29.4.86.49,1.26.19,1.69-1.24,3.3-2.59,4.87-3.87.38-.31.77-.61,1.16-.91.44.8.89,1.65,1.29,2.48.88,1.72,1.62,3.76-.03,5.23-.84.81-2.19,1.07-3.3.76-.73-.18-1.26-.55-1.52-1.24-.27-.72.13-1.43.62-2.04.24-.28.24-.7-.02-.97-.27-.29-.73-.31-1.03-.04-.65.59-1.31,1.45-1.43,2.42-.36,2.66,2.25,4.16,4.57,4.2,4.78.24,7.27-3.84,5.26-8.09ZM126.44,23.54c1.01-.63,2.52.29,2.52,1.46,0,.42-.25.81-.55,1.12-.37.37-1.12.65-1.72.99-.34-.56-.61-1.15-.75-1.77-.12-.69-.12-1.41.49-1.8Z"/>
  <path class="cls-1" d="M121.69,33.44c-.32-.66-.43-1.59-2.05-.32-1.87,1.43-1.58,1.36-3.68,2.38-.34.16-.7.28-1.07.33-2.31.28-2.21-2.12-1.65-3.96.14,0,.27.01.41.02,0,0,.66.03.66.03,1.26.07,2.5-.27,3.6-.86,1.34-.73,2.75-1.98,3.1-3.59.28-1.29-.18-2.7-1.22-3.56-4.12-3.03-8.33,2.85-9.45,6.34-.19.77-.3,1.1-.34,1.67-.26,2.14-.31,4.38,1.32,5.91,1.39,1.27,3.8.88,5.36-.06,1.76-1.02,2.39-1.72,3.95-3.08.36-.32.66-.65.78-.71.17-.09.08-.24.16-.3s.18-.12.13-.23ZM113.78,30.15c.67-1.45,2.19-4.19,3.88-4.34.64-.01,1.07.62,1,1.23-.17.96-1.01,1.69-1.79,2.23-.8.52-1.68.83-2.59.87,0,0-.32.02-.5.03,0,0,0-.01,0-.02Z"/>
  <path class="cls-1" d="M78.64,39.66c-.32-.66-.73-1.62-2-.34-1.43,1.18-2.21,2.61-3.88,3.45-2.68,1.02-3.01-2.03-2.57-4.34.14,0,.27.01.41.02,0,0,.66.03.66.03,1.26.07,2.5-.27,3.6-.86,1.34-.73,2.75-1.98,3.1-3.59.28-1.29-.18-2.7-1.22-3.56-4.12-3.03-8.33,2.85-9.45,6.34-.19.77-.3,1.1-.34,1.67-.26,2.14.15,4.43,1.78,5.96,1.39,1.27,3.58,1.36,5.14.41,1.76-1.02,2.58-2.69,3.49-3.64.46-.51.96-1.16,1.22-1.29.13-.06.12-.16.06-.27ZM70.72,36.73c.67-1.45,2.19-4.19,3.88-4.34.64-.01,1.07.62,1,1.23-.17.96-1.01,1.69-1.79,2.23-.8.52-1.68.83-2.59.87,0,0-.32.02-.5.03,0,0,0-.01,0-.02Z"/>
</svg>