<?xml version="1.0" encoding="UTF-8"?>
<svg id="Capa_1" data-name="Capa 1" xmlns="http://www.w3.org/2000/svg" viewBox="0 0 53.87 54.38">
  <defs>
    <style>
      .cls-1 {
        fill: #041126;
      }
    </style>
  </defs>
  <path class="cls-1" d="M26.79,52.68c-14.12,0-25.61-11.49-25.61-25.61S12.67,1.45,26.79,1.45c14.12,0,25.61,11.49,25.61,25.61s-11.49,25.61-25.61,25.61ZM26.79,1.97C12.95,1.97,1.7,13.23,1.7,27.07s11.26,25.09,25.09,25.09,25.09-11.26,25.09-25.09S40.63,1.97,26.79,1.97Z"/>
  <path class="cls-1" d="M22.76,34.35c-.22,0-.42-.08-.57-.24l-4.9-4.9c-.15-.15-.24-.36-.24-.57s.08-.42.24-.57c.15-.15.36-.24.57-.24s.42.08.57.24l4.33,4.33,12.38-12.38c.15-.15.36-.24.57-.24s.42.08.57.24c.15.15.24.36.24.57s-.08.42-.24.57l-12.95,12.95c-.15.15-.36.24-.57.24Z"/>
</svg>