<?xml version="1.0" encoding="UTF-8"?>
<svg id="Capa_1" data-name="Capa 1" xmlns="http://www.w3.org/2000/svg" viewBox="0 0 33.55 32.91">
  <defs>
    <style>
      .cls-1 {
        fill: #fff8ee;
      }
    </style>
  </defs>
  <path class="cls-1" d="M16.79,32.67C7.82,32.67.52,25.37.52,16.4S7.82.12,16.79.12c8.97,0,16.27,7.3,16.27,16.27s-7.3,16.27-16.27,16.27ZM16.79.45C8,.45.85,7.6.85,16.4s7.15,15.94,15.94,15.94,15.94-7.15,15.94-15.94S25.58.45,16.79.45Z"/>
  <path class="cls-1" d="M14.23,21.02c-.14,0-.27-.05-.36-.15l-3.11-3.11c-.1-.1-.15-.23-.15-.36s.05-.27.15-.36c.1-.1.23-.15.36-.15s.27.05.36.15l2.75,2.75,7.86-7.86c.1-.1.23-.15.36-.15s.27.05.36.15c.1.1.15.23.15.36s-.05.27-.15.36l-8.23,8.23c-.1.1-.23.15-.36.15Z"/>
</svg>