<?xml version="1.0" encoding="UTF-8"?>
<svg id="uuid-b2a674a0-c5c2-4df6-b1ba-dabea3ed192f" data-name="Capa 2" xmlns="http://www.w3.org/2000/svg" viewBox="0 0 29.1 29.06">
  <g id="uuid-053b3aa1-6a3e-45e8-a64c-ba7c926cfd69" data-name="Capa 1">
    <path d="M14.33,29.02c-2.23,0-4.46.1-6.69-.02-4.24-.24-7.32-3.11-7.5-7.31-.2-4.78-.19-9.59,0-14.37C.31,3.39,3.01.43,6.89.21c5.11-.29,10.26-.28,15.37,0,3.77.2,6.5,3.12,6.67,6.95.22,4.85.23,9.72.02,14.57-.18,4.15-3.18,6.99-7.33,7.25-2.42.15-4.86.03-7.29.03h0ZM14.68,2.61s0,0,0,0c-2.16,0-4.33-.08-6.49.02-3.46.17-5.52,2.22-5.6,5.68-.09,4.19-.11,8.39,0,12.57.1,3.41,2.13,5.54,5.43,5.63,4.32.12,8.66.12,12.98,0,3.21-.09,5.33-2.07,5.45-5.16.16-4.46.16-8.93,0-13.38-.12-3.33-2.31-5.24-5.69-5.35-2.03-.06-4.06-.01-6.08-.01Z" style="fill: #fff6ea;"/>
    <path d="M14.53,7.04c4.26,0,7.55,3.31,7.52,7.57-.03,4.1-3.4,7.46-7.48,7.47-4.15,0-7.57-3.46-7.54-7.63.04-4.13,3.36-7.41,7.5-7.41ZM14.61,19.41c2.71-.03,4.89-2.27,4.82-4.97-.07-2.61-2.23-4.76-4.83-4.79-2.67-.04-4.9,2.19-4.9,4.9,0,2.71,2.19,4.88,4.91,4.86Z" style="fill: #fff6ea;"/>
    <path d="M23.77,5.93c0,.95-.77,1.71-1.71,1.71s-1.71-.77-1.71-1.71.77-1.71,1.71-1.71,1.71.77,1.71,1.71Z" style="fill: #fff6ea;"/>
  </g>
</svg>