<?xml version="1.0" encoding="UTF-8"?>
<svg id="uuid-2d774faf-b61c-4d8b-8b0c-c4718fe6e800" data-name="Capa 2" xmlns="http://www.w3.org/2000/svg" viewBox="0 0 453.3 506.97">
  <g id="uuid-f8842b99-a68f-4398-a139-bd55958afaee" data-name="Capa 1">
    <path d="M271.58,476.5c-6.41,5.82-26.86,27.4-28.75,28.07-34.45,12.1-50.71-24.41-72.89-44.52-46.61-42.28-108.63-85.87-142.43-139.19-37.47-59.11-36.25-166.15,1.14-225.39C126.92-60.22,435.04-21.68,452.09,183.31c12.87,154.69-79.5,201.49-180.52,293.19ZM342.18,303.44C440.67,171.35,268.46,6.06,135.36,110.11c-59.17,46.25-69.35,119.48-32.03,183.67,33.48,57.6,118.05,81.52,179.54,55.9,10.49-4.37,52.62-37.25,59.32-46.24Z" style="fill: #f7f7f7;"/>
  </g>
</svg>