<?xml version="1.0" encoding="UTF-8"?>
<svg id="Capa_1" data-name="Capa 1" xmlns="http://www.w3.org/2000/svg" xmlns:xlink="http://www.w3.org/1999/xlink" viewBox="0 0 39.57 28.77">
  <defs>
    <style>
      .cls-1, .cls-2 {
        fill: none;
      }

      .cls-3 {
        clip-path: url(#clippath-1);
      }

      .cls-2 {
        stroke: #fff6ea;
        stroke-linecap: round;
        stroke-linejoin: round;
        stroke-width: .75px;
      }

      .cls-4 {
        clip-path: url(#clippath);
      }
    </style>
    <clipPath id="clippath">
      <rect class="cls-1" x="-824.1" y="-635.35" width="778.58" height="1084.89"/>
    </clipPath>
    <clipPath id="clippath-1">
      <rect class="cls-1" x="121.59" y="-627.39" width="778.58" height="1084.89"/>
    </clipPath>
    <image id="image" width="2500" height="1406" xlink:href="EntrePues ajustes pagina/Links/fondo-reserva.jpg"/>
  </defs>
  <g class="cls-4">
    <use transform="translate(-1901.08 -642.21) scale(.78)" xlink:href="#image"/>
  </g>
  <g>
    <line class="cls-2" x1="38.84" y1="23.81" x2=".72" y2="23.81"/>
    <path class="cls-2" d="M3.2,23.81C3.2,14.65,10.62,7.23,19.78,7.23s16.58,7.42,16.58,16.58"/>
    <path class="cls-2" d="M26.46,10.12c3.49,2.14,6.12,5.53,7.28,9.55"/>
    <rect class="cls-2" x="17.17" y=".91" width="5.3" height="3.8" rx="1.9" ry="1.9"/>
    <line class="cls-2" x1="18.96" y1="7.12" x2="18.96" y2="4.71"/>
    <line class="cls-2" x1="20.77" y1="7.12" x2="20.77" y2="4.71"/>
    <path class="cls-2" d="M3.2,25.89h33.16s-1.12,2.17-2.87,2.17H6.31c-1.33,0-3.11-2.17-3.11-2.17Z"/>
  </g>
  <g class="cls-3">
    <use transform="translate(-955.39 -634.25) scale(.78)" xlink:href="#image"/>
  </g>
</svg>